<?xml version="1.0" encoding="utf-8"?>
<!-- Generator: Adobe Illustrator 27.3.1, SVG Export Plug-In . SVG Version: 6.00 Build 0)  -->
<svg version="1.1" id="Layer_1" xmlns="http://www.w3.org/2000/svg" xmlns:xlink="http://www.w3.org/1999/xlink" x="0px" y="0px"
	 viewBox="0 0 194.5 165" style="enable-background:new 0 0 194.5 165;" xml:space="preserve">
<style type="text/css">
	.st0{fill:#FFFFFF;}
</style>
<path class="st0" d="M190.1,75.1l-43.4-35.8l-17.1-14.1c0,0,0,0,0,0L102.5,2.7c0,0,0,0,0,0c-0.2-0.1-0.3-0.3-0.5-0.4
	c0,0-0.1-0.1-0.1-0.1c-0.2-0.1-0.3-0.2-0.5-0.3c0,0-0.1-0.1-0.1-0.1c-0.1-0.1-0.3-0.1-0.5-0.2c-0.1,0-0.2-0.1-0.2-0.1
	c-0.1,0-0.2-0.1-0.3-0.1c-0.1,0-0.2-0.1-0.4-0.1c-0.1,0-0.1,0-0.2,0c-0.2,0-0.3-0.1-0.5-0.1c-0.1,0-0.1,0-0.2,0
	c-0.2,0-0.4-0.1-0.5-0.1c-1.2-0.1-2.4,0.1-3.5,0.5c0,0,0,0-0.1,0c-0.1,0.1-0.3,0.1-0.4,0.2c-0.1,0-0.2,0.1-0.3,0.1
	C94,1.9,93.9,2,93.8,2c-0.1,0.1-0.3,0.2-0.4,0.2c-0.1,0-0.1,0.1-0.2,0.1c-0.1,0.1-0.3,0.2-0.4,0.3c0,0,0,0,0,0L5.1,75.1
	c-1.8,1.5-2.8,3.7-2.8,5.9c0,1.7,0.6,3.4,1.7,4.9c1.5,1.8,3.7,2.8,5.9,2.8c1.7,0,3.4-0.6,4.9-1.7l10.9-9v60.6
	c0,14.1,11.5,25.5,25.5,25.5h91.5c14.1,0,25.5-11.5,25.5-25.5V77l11.9,9.9c1.4,1.2,3.1,1.7,4.9,1.7c2.2,0,4.4-0.9,5.9-2.8
	c1.2-1.4,1.7-3.1,1.7-4.9C192.9,78.8,191.9,76.6,190.1,75.1z M113.4,148.7H81.8v-46.4h31.6V148.7z M153.1,64.4v74.1
	c0,5.7-4.6,10.3-10.3,10.3h-15.7V100c0-6.6-5.3-11.9-11.9-11.9H80c-6.6,0-11.9,5.3-11.9,11.9v48.7H51.3c-5.7,0-10.3-4.6-10.3-10.3
	V65.2l56.5-46.7l54.5,45L153.1,64.4z"/>
</svg>
